<?xml version="1.0" encoding="UTF-8" standalone="no"?>
<svg id="Capa_1" style="enable-background:new 0 0 382.498 382.498" xmlns="http://www.w3.org/2000/svg" xml:space="preserve" viewBox="0 0 382.498 382.498" height="512px" width="512px" version="1.1" y="0px" x="0px" xmlns:xlink="http://www.w3.org/1999/xlink" class="">
		<path data-original="#000000" fill="#E49205" d="m372.65 229.38c0.023-0.346 0.023-0.694 0-1.04-0.2-0.448-0.441-0.876-0.72-1.28l-0.72-0.96-142.32-136c-1.161-1.133-2.64-1.887-4.24-2.16-12.195-1.702-24.487-2.611-36.8-2.72-4.696-3.652-10.171-6.171-16-7.36-1.36-14.72 0.24-48 27.68-62.72 3.888-2.209 5.249-7.152 3.04-11.04s-7.152-5.249-11.04-3.04c-35.6 19.28-37.92 59.44-37.12 76.72-7.137 1.599-13.68 5.176-18.88 10.32-58.48 8.8-101.68 34.88-125.12 75.68v0.88c-0.4 0.937-0.617 1.942-0.64 2.96v142.88c-0.064 3.912 2.711 7.296 6.56 8l346.96 64h1.44c4.418 0 8-3.582 8-8v-143.36-0.56c0-0.4-0.02-0.8-0.08-1.2zm-208.96-136.88c12.725-0.044 23.076 10.235 23.12 22.96s-10.235 23.076-22.96 23.12-23.076-10.235-23.12-22.96v-0.08c0-12.7 10.27-22.998 22.96-23.042zm-37.68 13.442c-0.823 3.107-1.253 6.306-1.28 9.52-0.632 21.552 16.326 39.536 37.878 40.168s39.536-16.326 40.168-37.878c0.169-5.761-0.94-11.488-3.246-16.77 9.04 0.48 16 1.28 19.2 1.68l121.44 116.08-308.64-56.96c19.76-28.48 51.6-47.12 94.48-55.84zm-100 197.84v-38.4l330.96 59.6 0.08 39.92-331.04-61.12zm0-54.64v-24l330.96 59.6 0.08 24.16-331.04-59.76zm0-40.08v-32l245.52 45.36 85.36 16 0.16 30.48-331.04-59.84z" data-old_color="#000000" class="active-path"/>
 </svg>
