<?xml version="1.0" encoding="UTF-8" standalone="no"?>
<svg width="512px" xmlns="http://www.w3.org/2000/svg" viewBox="0 0 511 511.99888" height="512px">
 <g transform="matrix(1 0 0 -1 0 512)" fill="#E49205">
  <path data-original="#000000" d="m423.03 75.32c-3.8984 3.9102-3.8984 10.238 0 14.148 3.9102 3.8984 10.238 3.8984 14.148 0 3.8984-3.9102 3.8984-10.238 0-14.148-3.9102-3.8984-10.238-3.8984-14.148 0z" data-old_color="#000000" class="active-path"/>
  <path data-original="#000000" d="m423.02 0.125c-58.891 2.2734-130.4 30.086-187.31 79.844-36.48-7.9961-74.914 3.0977-101.45 29.633-11.695 11.691-11.695 30.719 0 42.414l32.492 32.492c-20.57 59.32-24.496 122.64-25.016 154.96-17.812-11.793-38.691-18.129-60.543-18.129-29.379 0-56.992 11.438-77.766 32.211-3.9023 3.9023-3.9023 10.234 0 14.137 20.773 20.77 48.387 32.211 77.766 32.211 13.254 0 26.145-2.3359 38.211-6.8008-4.4609 12.07-6.7969 24.961-6.7969 38.215 0 29.375 11.438 56.992 32.207 77.762 1.9531 1.9531 4.5117 2.9297 7.0703 2.9297s5.1172-0.97656 7.0703-2.9297c20.77-20.77 32.211-48.387 32.211-77.762 0-21.855-6.3359-42.734-18.133-60.547 32.32-0.51562 95.645-4.4375 154.96-25.008l32.488 32.488c11.691 11.691 30.719 11.691 42.41 0 26.535-26.535 37.629-64.965 29.637-101.44 43.801-50.145 77.574-121.04 79.844-188.37 1.0156-30.176-6.1797-55.996-19.25-69.062-13.23-13.23-39.438-20.426-70.109-19.246zm-274.62 123.62c18.258-18.258 43.402-27.578 68.691-26.195-16.801 17.395-31.047 39.719-42.473 66.543l-26.219-26.215c-3.8945-3.8945-3.8945-10.238 0-14.133zm-122.89 236.88c15.805-12.5 35.223-19.285 55.684-19.285s39.879 6.7852 55.684 19.285c-15.805 12.5-35.223 19.281-55.684 19.281s-39.879-6.7852-55.684-19.281zm126.38 126.38c-12.5-15.805-19.281-35.223-19.281-55.684s6.7812-39.879 19.281-55.684c12.5 15.809 19.285 35.223 19.285 55.684s-6.7852 39.879-19.285 55.684zm236.88-122.89c-3.8945 3.8984-10.238 3.8984-14.133 0l-26.219-26.215c26.828-11.43 49.152-25.672 66.547-42.473 1.3828 25.289-7.9375 50.434-26.195 68.688zm103.63-276.34c-0.92969 27.652-8.4453 59.363-21.207 89.793-27.934 6.8438-58.422 1.4297-84.371-15.16-4.6484-2.9727-10.832-1.6133-13.809 3.043-2.9727 4.6484-1.6133 10.832 3.0391 13.809 25.578 16.348 55.477 23.746 84.859 20.406-12.566 24.496-28.242 47.223-46.758 67.758v0.003906c-3.625 4.0234-7.4102 8.0117-11.25 11.848-55.285 55.285-162.79 71.844-241.19 71.527-0.33594-78.332 16.129-185.79 71.531-241.18 3.8672-3.8711 7.8516-7.6484 11.855-11.246 20.547-18.539 43.281-34.227 67.777-46.801-2.3047 20.625 0.64062 42.125 8.7109 62.23 2.0586 5.1328 7.8867 7.6055 13 5.5547 5.125-2.0586 7.6133-7.8789 5.5547-13.004-8.5039-21.188-10.297-44.102-5.1797-65.055 30.082-12.617 61.449-20.121 88.828-21.18 27.805-1.0742 47.758 5.9648 55.203 13.406 7.332 7.332 14.32 26.953 13.402 54.25z" data-old_color="#000000" class="active-path"/>
  <path data-original="#000000" d="m344.34 137.3c-3.8984 3.9102-3.8984 10.238 0 14.148 3.9102 3.8984 10.238 3.8984 14.148 0 3.8984-3.9102 3.8984-10.238 0-14.148-3.9102-3.8984-10.238-3.8984-14.148 0z" data-old_color="#000000" class="active-path"/>
 </g>
</svg>
