<?xml version="1.0" encoding="UTF-8" standalone="no"?>
<svg id="Capa_1" style="enable-background:new 0 0 511.001 511.001" xmlns="http://www.w3.org/2000/svg" xml:space="preserve" viewBox="0 0 511.001 511.001" height="512px" width="512px" version="1.1" y="0px" x="0px" xmlns:xlink="http://www.w3.org/1999/xlink"><g transform="matrix(-1 0 0 1 511 0)"><g fill="#E49205">
	<path data-original="#000000" d="m510.85 274c-0.712-3.493-3.784-6.001-7.349-6.001h-41.099c-3.27-20.649-19.821-36.853-40.905-39.493-10.27-15.212-27.543-24.507-45.996-24.507-4.735 0-9.401 0.598-13.943 1.783-8.037-15.679-24.129-25.783-42.057-25.783-4.403 0-8.738 0.609-12.951 1.816-11.949-16.273-30.614-25.816-51.049-25.816-17.538 0-33.961 7.114-45.925 19.708-5.802-2.464-11.858-3.708-18.075-3.708-7.587 0-14.914 1.785-21.534 5.203-40.45-49.88-101.51-117.28-108.2-123.97-5.95-5.95-13.86-9.226-22.274-9.226s-16.324 3.276-22.274 9.226c-5.95 5.949-9.226 13.86-9.226 22.274s3.276 16.324 9.226 22.274c4.966 4.966 63.43 58.142 112.28 98.612-17.956 2.293-33.191 14.745-38.994 31.874-21.373 2.239-38.561 18.713-41.911 39.74h-41.094c-3.564 0-6.637 2.509-7.349 6.001-0.712 3.493 1.132 7.004 4.412 8.4 14.715 6.262 28.226 33.048 42.53 61.407 13.543 26.851 28.894 57.284 49.89 81.109 24.955 28.317 53.255 42.083 86.517 42.083h144c33.262 0 61.562-13.766 86.517-42.083 20.996-23.825 36.346-54.258 49.89-81.109 14.304-28.359 27.814-55.145 42.53-61.407 3.28-1.39 5.12-4.9 4.41-8.4zm-319.35-87c0.502 0 1.001 0.027 1.501 0.051-1.909 1.324-3.732 2.825-5.432 4.525-1.176 1.176-2.261 2.421-3.266 3.72-1.503-1.953-3.069-3.963-4.684-6.017 3.74-1.49 7.75-2.28 11.88-2.28zm-168.5-111.5c0-4.407 1.716-8.551 4.833-11.667s7.26-4.833 11.667-4.833 8.551 1.716 11.667 4.833c7.779 7.78 90.024 98.735 125.9 146.74-0.293 1.261-0.536 2.533-0.706 3.818-47.66-35.27-142.43-121.12-148.53-127.22-3.113-3.119-4.829-7.262-4.829-11.669zm72.121 167.5c0.261 0.033 0.618 0.069 1.029 0.077 3.635 0.081 6.786-2.463 7.501-6.021 3.034-15.099 16.429-26.058 31.849-26.058 4.687 0 12.516 1.704 18.809 5.431 8.8 6.892 16.751 12.826 23.315 17.279 1.29 0.875 2.754 1.294 4.204 1.294 0.448 0 0.893-0.053 1.332-0.132 0.44 0.081 0.888 0.131 1.344 0.131 0.618 0 1.246-0.077 1.872-0.238 4.012-1.031 6.429-5.119 5.398-9.13-2.149-8.367 0.304-17.353 6.402-23.451 9.553-9.552 25.096-9.552 34.648 0 2.929 2.93 7.678 2.929 10.606 0 2.929-2.929 2.929-7.678 0-10.606-5.108-5.108-11.281-8.511-17.81-10.231 8.445-6.658 18.872-10.345 29.879-10.345 17.189 0 32.746 8.858 41.614 23.697 1.936 3.238 5.977 4.536 9.435 3.027 4.147-1.808 8.504-2.724 12.951-2.724 13.961 0 26.303 9.011 30.71 22.423 0.649 1.978 2.092 3.596 3.982 4.469 1.891 0.872 4.057 0.919 5.984 0.131 4.898-2.006 10.054-3.023 15.323-3.023 14.442 0 27.899 7.816 35.121 20.397 1.283 2.235 3.624 3.655 6.199 3.76 14.892 0.609 27.03 11.008 30.303 24.842h-131.71c6.688-14.586 4.038-32.437-7.957-44.431-7.461-7.461-17.379-11.569-27.93-11.569h-0.005c-4.142 0-7.5 3.359-7.499 7.501s3.359 7.5 7.501 7.499h0.003c6.543 0 12.696 2.548 17.323 7.176 9.288 9.288 9.517 24.222 0.745 33.824h-233.68c3.371-14.21 16.069-24.83 31.242-25.01zm357.1 90.68c-1.325-1.073-3.01-1.677-4.719-1.677-1.97 0-3.91 0.8-5.3 2.2-1.4 1.39-2.2 3.33-2.2 5.3s0.8 3.91 2.2 5.3c0.939 0.945 2.13 1.609 3.411 1.946-11.947 23.467-25.534 48.61-42.846 68.254-21.941 24.897-46.56 37-75.263 37h-144c-28.704 0-53.322-12.103-75.263-37-17.312-19.644-30.898-44.787-42.846-68.255 1.28-0.337 2.473-1 3.418-1.945 1.39-1.39 2.19-3.33 2.19-5.3s-0.8-3.91-2.19-5.3c-1.4-1.4-3.33-2.2-5.31-2.2-1.708 0-3.393 0.603-4.717 1.675-10.15-20.099-19.532-38.246-30.132-50.675h453.7c-10.6 12.43-19.98 30.58-30.13 50.68z" data-old_color="#000000" class="active-path"/>
	<path data-original="#000000" d="m255.5 372c-12.958 0-23.5 10.542-23.5 23.5s10.542 23.5 23.5 23.5c12.958 0 23.5-10.542 23.5-23.5s-10.54-23.5-23.5-23.5zm0 32c-4.687 0-8.5-3.813-8.5-8.5s3.813-8.5 8.5-8.5c4.687 0 8.5 3.813 8.5 8.5s-3.81 8.5-8.5 8.5z" data-old_color="#000000" class="active-path"/>
	<path data-original="#000000" d="m351.5 372c-12.958 0-23.5 10.542-23.5 23.5s10.542 23.5 23.5 23.5 23.5-10.542 23.5-23.5-10.54-23.5-23.5-23.5zm0 32c-4.687 0-8.5-3.813-8.5-8.5s3.813-8.5 8.5-8.5 8.5 3.813 8.5 8.5-3.81 8.5-8.5 8.5z" data-old_color="#000000" class="active-path"/>
	<path data-original="#000000" d="m159.5 372c-12.958 0-23.5 10.542-23.5 23.5s10.542 23.5 23.5 23.5 23.5-10.542 23.5-23.5-10.54-23.5-23.5-23.5zm0 32c-4.687 0-8.5-3.813-8.5-8.5s3.813-8.5 8.5-8.5 8.5 3.813 8.5 8.5-3.81 8.5-8.5 8.5z" data-old_color="#000000" class="active-path"/>
	<path data-original="#000000" d="m207.5 388c-1.97 0-3.91 0.8-5.3 2.2-1.4 1.39-2.2 3.32-2.2 5.3s0.8 3.91 2.2 5.3c1.39 1.4 3.33 2.2 5.3 2.2 1.98 0 3.91-0.8 5.3-2.2 1.4-1.39 2.2-3.33 2.2-5.3 0-1.98-0.8-3.91-2.2-5.3-1.39-1.4-3.32-2.2-5.3-2.2z" data-old_color="#000000" class="active-path"/>
	<path data-original="#000000" d="m111.5 388c-1.97 0-3.91 0.8-5.3 2.2-1.4 1.39-2.2 3.33-2.2 5.3s0.8 3.91 2.2 5.3c1.39 1.4 3.33 2.2 5.3 2.2 1.98 0 3.91-0.8 5.3-2.2 1.4-1.39 2.2-3.33 2.2-5.3s-0.8-3.91-2.2-5.3c-1.39-1.4-3.32-2.2-5.3-2.2z" data-old_color="#000000" class="active-path"/>
	<path data-original="#000000" d="m303.5 388c-1.97 0-3.91 0.8-5.3 2.2-1.4 1.39-2.2 3.33-2.2 5.3s0.8 3.91 2.2 5.3c1.39 1.4 3.33 2.2 5.3 2.2 1.98 0 3.91-0.8 5.3-2.2 1.4-1.39 2.2-3.33 2.2-5.3s-0.8-3.91-2.2-5.3c-1.39-1.4-3.32-2.2-5.3-2.2z" data-old_color="#000000" class="active-path"/>
	<path data-original="#000000" d="m399.5 388c-1.97 0-3.91 0.8-5.3 2.2-1.4 1.39-2.2 3.32-2.2 5.3s0.8 3.91 2.2 5.3c1.39 1.4 3.33 2.2 5.3 2.2 1.98 0 3.91-0.8 5.3-2.2 1.4-1.39 2.2-3.33 2.2-5.3s-0.8-3.91-2.2-5.3c-1.39-1.4-3.32-2.2-5.3-2.2z" data-old_color="#000000" class="active-path"/>
	<path data-original="#000000" d="m207.5 316c-12.958 0-23.5 10.542-23.5 23.5s10.542 23.5 23.5 23.5 23.5-10.542 23.5-23.5-10.54-23.5-23.5-23.5zm0 32c-4.687 0-8.5-3.813-8.5-8.5s3.813-8.5 8.5-8.5 8.5 3.813 8.5 8.5-3.81 8.5-8.5 8.5z" data-old_color="#000000" class="active-path"/>
	<path data-original="#000000" d="m399.5 316c-12.958 0-23.5 10.542-23.5 23.5s10.542 23.5 23.5 23.5 23.5-10.542 23.5-23.5-10.54-23.5-23.5-23.5zm0 32c-4.687 0-8.5-3.813-8.5-8.5s3.813-8.5 8.5-8.5 8.5 3.813 8.5 8.5-3.81 8.5-8.5 8.5z" data-old_color="#000000" class="active-path"/>
	<path data-original="#000000" d="m303.5 316c-12.958 0-23.5 10.542-23.5 23.5s10.542 23.5 23.5 23.5 23.5-10.542 23.5-23.5-10.54-23.5-23.5-23.5zm0 32c-4.687 0-8.5-3.813-8.5-8.5s3.813-8.5 8.5-8.5 8.5 3.813 8.5 8.5-3.81 8.5-8.5 8.5z" data-old_color="#000000" class="active-path"/>
	<path data-original="#000000" d="m111.5 316c-12.958 0-23.5 10.542-23.5 23.5s10.542 23.5 23.5 23.5 23.5-10.542 23.5-23.5-10.54-23.5-23.5-23.5zm0 32c-4.687 0-8.5-3.813-8.5-8.5s3.813-8.5 8.5-8.5 8.5 3.813 8.5 8.5-3.81 8.5-8.5 8.5z" data-old_color="#000000" class="active-path"/>
	<path data-original="#000000" d="m159.5 347c1.97 0 3.91-0.8 5.3-2.2 1.4-1.39 2.2-3.33 2.2-5.3s-0.8-3.91-2.2-5.3c-1.39-1.4-3.32-2.2-5.3-2.2-1.97 0-3.91 0.8-5.3 2.2-1.4 1.39-2.2 3.33-2.2 5.3s0.8 3.91 2.2 5.3c1.4 1.4 3.33 2.2 5.3 2.2z" data-old_color="#000000" class="active-path"/>
	<path data-original="#000000" d="m255.5 347c1.97 0 3.91-0.8 5.3-2.2 1.4-1.39 2.2-3.33 2.2-5.3s-0.8-3.91-2.2-5.3c-1.39-1.4-3.32-2.2-5.3-2.2-1.97 0-3.91 0.8-5.3 2.2-1.4 1.39-2.2 3.33-2.2 5.3s0.8 3.91 2.2 5.3c1.39 1.4 3.33 2.2 5.3 2.2z" data-old_color="#000000" class="active-path"/>
	<path data-original="#000000" d="m351.5 347c1.97 0 3.91-0.8 5.3-2.2 1.4-1.39 2.2-3.33 2.2-5.3s-0.8-3.91-2.2-5.3c-1.39-1.4-3.32-2.2-5.3-2.2-1.97 0-3.91 0.8-5.3 2.2-1.4 1.39-2.2 3.32-2.2 5.3 0 1.97 0.8 3.91 2.2 5.3 1.39 1.4 3.33 2.2 5.3 2.2z" data-old_color="#000000" class="active-path"/>
</g></g> </svg>
