<?xml version="1.0"?>
<svg xmlns="http://www.w3.org/2000/svg" xmlns:xlink="http://www.w3.org/1999/xlink" version="1.1" id="Capa_1" x="0px" y="0px" viewBox="0 0 511.001 511.001" style="enable-background:new 0 0 511.001 511.001;" xml:space="preserve" width="512px" height="512px"><g transform="matrix(-1 0 0 1 511.001 0)"><g>
	<path d="M510.849,274.002c-0.712-3.493-3.784-6.001-7.349-6.001h-41.099c-3.27-20.649-19.821-36.853-40.905-39.493   c-10.27-15.212-27.543-24.507-45.996-24.507c-4.735,0-9.401,0.598-13.943,1.783c-8.037-15.679-24.129-25.783-42.057-25.783   c-4.403,0-8.738,0.609-12.951,1.816c-11.949-16.273-30.614-25.816-51.049-25.816c-17.538,0-33.961,7.114-45.925,19.708   c-5.802-2.464-11.858-3.708-18.075-3.708c-7.587,0-14.914,1.785-21.534,5.203C129.516,127.322,68.462,59.915,61.775,53.227   c-5.95-5.95-13.86-9.226-22.274-9.226s-16.324,3.276-22.274,9.226c-5.95,5.949-9.226,13.86-9.226,22.274s3.276,16.324,9.226,22.274   c4.966,4.966,63.43,58.142,112.282,98.612c-17.956,2.293-33.191,14.745-38.994,31.874c-21.373,2.239-38.561,18.713-41.911,39.74   H7.501c-3.564,0-6.637,2.509-7.349,6.001c-0.712,3.493,1.132,7.004,4.412,8.4c14.715,6.262,28.226,33.048,42.53,61.407   c13.543,26.851,28.894,57.284,49.89,81.109c24.955,28.317,53.255,42.083,86.517,42.083h144c33.262,0,61.562-13.766,86.517-42.083   c20.996-23.825,36.346-54.258,49.89-81.109c14.304-28.359,27.814-55.145,42.53-61.407   C509.717,281.006,511.562,277.495,510.849,274.002z M191.501,187.001c0.502,0,1.001,0.027,1.501,0.051   c-1.909,1.324-3.732,2.825-5.432,4.525c-1.176,1.176-2.261,2.421-3.266,3.72c-1.503-1.953-3.069-3.963-4.684-6.017   C183.364,187.786,187.373,187.001,191.501,187.001z M23.001,75.501c0-4.407,1.716-8.551,4.833-11.667   c3.117-3.116,7.26-4.833,11.667-4.833s8.551,1.716,11.667,4.833c7.779,7.78,90.024,98.735,125.902,146.744   c-0.293,1.261-0.536,2.533-0.706,3.818C128.699,179.123,33.932,93.267,27.833,87.168C24.717,84.051,23.001,79.908,23.001,75.501z    M95.122,243.003c0.261,0.033,0.618,0.069,1.029,0.077c3.635,0.081,6.786-2.463,7.501-6.021   c3.034-15.099,16.429-26.058,31.849-26.058c4.687,0,12.516,1.704,18.809,5.431c8.8,6.892,16.751,12.826,23.315,17.279   c1.29,0.875,2.754,1.294,4.204,1.294c0.448,0,0.893-0.053,1.332-0.132c0.44,0.081,0.888,0.131,1.344,0.131   c0.618,0,1.246-0.077,1.872-0.238c4.012-1.031,6.429-5.119,5.398-9.13c-2.149-8.367,0.304-17.353,6.402-23.451   c9.553-9.552,25.096-9.552,34.648,0c2.929,2.93,7.678,2.929,10.606,0c2.929-2.929,2.929-7.678,0-10.606   c-5.108-5.108-11.281-8.511-17.81-10.231c8.445-6.658,18.872-10.345,29.879-10.345c17.189,0,32.746,8.858,41.614,23.697   c1.936,3.238,5.977,4.536,9.435,3.027c4.147-1.808,8.504-2.724,12.951-2.724c13.961,0,26.303,9.011,30.71,22.423   c0.649,1.978,2.092,3.596,3.982,4.469c1.891,0.872,4.057,0.919,5.984,0.131c4.898-2.006,10.054-3.023,15.323-3.023   c14.442,0,27.899,7.816,35.121,20.397c1.283,2.235,3.624,3.655,6.199,3.76c14.892,0.609,27.03,11.008,30.303,24.842H315.388   c6.688-14.586,4.038-32.437-7.957-44.431c-7.461-7.461-17.379-11.569-27.93-11.569c-0.001,0-0.003,0-0.005,0   c-4.142,0-7.5,3.359-7.499,7.501s3.359,7.5,7.501,7.499c0,0,0.002,0,0.003,0c6.543,0,12.696,2.548,17.323,7.176   c9.288,9.288,9.517,24.222,0.745,33.824H63.883C67.251,253.803,79.949,243.176,95.122,243.003z M452.218,333.678   c-1.325-1.073-3.01-1.677-4.719-1.677c-1.97,0-3.91,0.8-5.3,2.2c-1.4,1.39-2.2,3.33-2.2,5.3c0,1.97,0.8,3.91,2.2,5.3   c0.939,0.945,2.13,1.609,3.411,1.946c-11.947,23.467-25.534,48.61-42.846,68.254c-21.941,24.897-46.56,37-75.263,37h-73.023   h-70.977c-28.704,0-53.322-12.103-75.263-37c-17.312-19.644-30.898-44.787-42.846-68.255c1.28-0.337,2.473-1,3.418-1.945   c1.39-1.39,2.19-3.33,2.19-5.3c0-1.97-0.8-3.91-2.19-5.3c-1.4-1.4-3.33-2.2-5.31-2.2c-1.708,0-3.393,0.603-4.717,1.675   c-10.15-20.099-19.532-38.246-30.132-50.675h453.7C471.75,295.43,462.368,313.578,452.218,333.678z" data-original="#000000" class="active-path" data-old_color="#000000" fill="#E49205"/>
	<path d="M255.501,372.001c-12.958,0-23.5,10.542-23.5,23.5s10.542,23.5,23.5,23.5c12.958,0,23.5-10.542,23.5-23.5   S268.459,372.001,255.501,372.001z M255.501,404.001c-4.687,0-8.5-3.813-8.5-8.5s3.813-8.5,8.5-8.5c4.687,0,8.5,3.813,8.5,8.5   S260.188,404.001,255.501,404.001z" data-original="#000000" class="active-path" data-old_color="#000000" fill="#E49205"/>
	<path d="M351.501,372.001c-12.958,0-23.5,10.542-23.5,23.5s10.542,23.5,23.5,23.5s23.5-10.542,23.5-23.5   S364.459,372.001,351.501,372.001z M351.501,404.001c-4.687,0-8.5-3.813-8.5-8.5s3.813-8.5,8.5-8.5s8.5,3.813,8.5,8.5   S356.188,404.001,351.501,404.001z" data-original="#000000" class="active-path" data-old_color="#000000" fill="#E49205"/>
	<path d="M159.501,372.001c-12.958,0-23.5,10.542-23.5,23.5s10.542,23.5,23.5,23.5s23.5-10.542,23.5-23.5   S172.459,372.001,159.501,372.001z M159.501,404.001c-4.687,0-8.5-3.813-8.5-8.5s3.813-8.5,8.5-8.5s8.5,3.813,8.5,8.5   S164.188,404.001,159.501,404.001z" data-original="#000000" class="active-path" data-old_color="#000000" fill="#E49205"/>
	<path d="M207.499,388.001c-1.97,0-3.91,0.8-5.3,2.2c-1.4,1.39-2.2,3.32-2.2,5.3s0.8,3.91,2.2,5.3c1.39,1.4,3.33,2.2,5.3,2.2   c1.98,0,3.91-0.8,5.3-2.2c1.4-1.39,2.2-3.33,2.2-5.3c0-1.98-0.8-3.91-2.2-5.3C211.409,388.801,209.479,388.001,207.499,388.001z" data-original="#000000" class="active-path" data-old_color="#000000" fill="#E49205"/>
	<path d="M111.499,388.001c-1.97,0-3.91,0.8-5.3,2.2c-1.4,1.39-2.2,3.33-2.2,5.3c0,1.97,0.8,3.91,2.2,5.3c1.39,1.4,3.33,2.2,5.3,2.2   c1.98,0,3.91-0.8,5.3-2.2c1.4-1.39,2.2-3.33,2.2-5.3c0-1.97-0.8-3.91-2.2-5.3C115.409,388.801,113.479,388.001,111.499,388.001z" data-original="#000000" class="active-path" data-old_color="#000000" fill="#E49205"/>
	<path d="M303.499,388.001c-1.97,0-3.91,0.8-5.3,2.2c-1.4,1.39-2.2,3.33-2.2,5.3c0,1.97,0.8,3.91,2.2,5.3c1.39,1.4,3.33,2.2,5.3,2.2   c1.98,0,3.91-0.8,5.3-2.2c1.4-1.39,2.2-3.33,2.2-5.3c0-1.97-0.8-3.91-2.2-5.3C307.409,388.801,305.479,388.001,303.499,388.001z" data-original="#000000" class="active-path" data-old_color="#000000" fill="#E49205"/>
	<path d="M399.499,388.001c-1.97,0-3.91,0.8-5.3,2.2c-1.4,1.39-2.2,3.32-2.2,5.3s0.8,3.91,2.2,5.3c1.39,1.4,3.33,2.2,5.3,2.2   c1.98,0,3.91-0.8,5.3-2.2c1.4-1.39,2.2-3.33,2.2-5.3c0-1.97-0.8-3.91-2.2-5.3C403.409,388.801,401.479,388.001,399.499,388.001z" data-original="#000000" class="active-path" data-old_color="#000000" fill="#E49205"/>
	<path d="M207.501,316.001c-12.958,0-23.5,10.542-23.5,23.5s10.542,23.5,23.5,23.5s23.5-10.542,23.5-23.5   S220.459,316.001,207.501,316.001z M207.501,348.001c-4.687,0-8.5-3.813-8.5-8.5s3.813-8.5,8.5-8.5s8.5,3.813,8.5,8.5   S212.188,348.001,207.501,348.001z" data-original="#000000" class="active-path" data-old_color="#000000" fill="#E49205"/>
	<path d="M399.501,316.001c-12.958,0-23.5,10.542-23.5,23.5s10.542,23.5,23.5,23.5s23.5-10.542,23.5-23.5   S412.459,316.001,399.501,316.001z M399.501,348.001c-4.687,0-8.5-3.813-8.5-8.5s3.813-8.5,8.5-8.5s8.5,3.813,8.5,8.5   S404.188,348.001,399.501,348.001z" data-original="#000000" class="active-path" data-old_color="#000000" fill="#E49205"/>
	<path d="M303.501,316.001c-12.958,0-23.5,10.542-23.5,23.5s10.542,23.5,23.5,23.5s23.5-10.542,23.5-23.5   S316.459,316.001,303.501,316.001z M303.501,348.001c-4.687,0-8.5-3.813-8.5-8.5s3.813-8.5,8.5-8.5s8.5,3.813,8.5,8.5   S308.188,348.001,303.501,348.001z" data-original="#000000" class="active-path" data-old_color="#000000" fill="#E49205"/>
	<path d="M111.501,316.001c-12.958,0-23.5,10.542-23.5,23.5s10.542,23.5,23.5,23.5s23.5-10.542,23.5-23.5   S124.459,316.001,111.501,316.001z M111.501,348.001c-4.687,0-8.5-3.813-8.5-8.5s3.813-8.5,8.5-8.5s8.5,3.813,8.5,8.5   S116.188,348.001,111.501,348.001z" data-original="#000000" class="active-path" data-old_color="#000000" fill="#E49205"/>
	<path d="M159.499,347.001c1.97,0,3.91-0.8,5.3-2.2c1.4-1.39,2.2-3.33,2.2-5.3c0-1.97-0.8-3.91-2.2-5.3c-1.39-1.4-3.32-2.2-5.3-2.2   c-1.97,0-3.91,0.8-5.3,2.2c-1.4,1.39-2.2,3.33-2.2,5.3c0,1.97,0.8,3.91,2.2,5.3C155.599,346.2,157.529,347.001,159.499,347.001z" data-original="#000000" class="active-path" data-old_color="#000000" fill="#E49205"/>
	<path d="M255.499,347.001c1.97,0,3.91-0.8,5.3-2.2c1.4-1.39,2.2-3.33,2.2-5.3c0-1.97-0.8-3.91-2.2-5.3c-1.39-1.4-3.32-2.2-5.3-2.2   c-1.97,0-3.91,0.8-5.3,2.2c-1.4,1.39-2.2,3.33-2.2,5.3c0,1.97,0.8,3.91,2.2,5.3C251.589,346.2,253.529,347.001,255.499,347.001z" data-original="#000000" class="active-path" data-old_color="#000000" fill="#E49205"/>
	<path d="M351.499,347.001c1.97,0,3.91-0.8,5.3-2.2c1.4-1.39,2.2-3.33,2.2-5.3c0-1.97-0.8-3.91-2.2-5.3c-1.39-1.4-3.32-2.2-5.3-2.2   c-1.97,0-3.91,0.8-5.3,2.2c-1.4,1.39-2.2,3.32-2.2,5.3c0,1.97,0.8,3.91,2.2,5.3C347.589,346.2,349.529,347.001,351.499,347.001z" data-original="#000000" class="active-path" data-old_color="#000000" fill="#E49205"/>
</g></g> </svg>
