<?xml version="1.0" encoding="UTF-8" standalone="no"?>
<svg width="512px" class="" xmlns="http://www.w3.org/2000/svg" viewBox="0 -10 512.00181 512" height="512px">
 <g fill="#E49205">
  <path data-original="#000000" d="m138.24 266.24c33.078 0 66.559-12.309 66.559-35.84s-33.484-35.84-66.559-35.84-66.559 12.309-66.559 35.84 33.484 35.84 66.559 35.84zm0-51.199c29.934 0 46.082 10.895 46.082 15.359s-16.148 15.359-46.082 15.359c-29.93 0-46.078-10.895-46.078-15.359s16.148-15.359 46.078-15.359z" data-old_color="#000000" class="active-path"/>
  <path data-original="#000000" d="m61.441 368.64c-5.6523 0-10.242 4.5781-10.242 10.238v61.441c0 5.6641 4.5898 10.242 10.242 10.242s10.238-4.5781 10.238-10.242v-61.441c0-5.6602-4.5859-10.238-10.238-10.238z" data-old_color="#000000" class="active-path"/>
  <path data-original="#000000" d="m61.441 307.2c-5.6523 0-10.242 4.5781-10.242 10.242v30.691c0 5.6602 4.5898 10.238 10.242 10.238s10.238-4.5781 10.238-10.238v-30.691c0-5.6641-4.5859-10.242-10.238-10.242z" data-old_color="#000000" class="active-path"/>
  <path data-original="#000000" d="m317.44 368.64c-5.6523 0-10.242 4.5781-10.242 10.238v61.441c0 5.6641 4.5898 10.242 10.242 10.242s10.238-4.5781 10.238-10.242v-61.441c0-5.6602-4.5859-10.238-10.238-10.238z" data-old_color="#000000" class="active-path"/>
  <path data-original="#000000" d="m317.44 307.2c-5.6523 0-10.242 4.5781-10.242 10.242v30.691c0 5.6602 4.5898 10.238 10.242 10.238s10.238-4.5781 10.238-10.238v-30.691c0-5.6641-4.5859-10.242-10.238-10.242z" data-old_color="#000000" class="active-path"/>
  <path data-original="#000000" d="m261.12 102.4c33.074 0 66.559-12.309 66.559-35.84s-33.484-35.84-66.559-35.84c-33.074 0-66.559 12.309-66.559 35.84s33.484 35.84 66.559 35.84zm0-51.199c29.934 0 46.082 10.895 46.082 15.359s-16.148 15.359-46.082 15.359-46.082-10.895-46.082-15.359 16.148-15.359 46.082-15.359z" data-old_color="#000000" class="active-path"/>
  <path data-original="#000000" d="m373.76 266.24c33.074 0 66.559-12.309 66.559-35.84s-33.484-35.84-66.559-35.84-66.559 12.309-66.559 35.84c-0.003906 23.531 33.48 35.84 66.559 35.84zm0-51.199c29.93 0 46.078 10.895 46.078 15.359s-16.148 15.359-46.078 15.359c-29.934 0-46.082-10.895-46.082-15.359s16.148-15.359 46.082-15.359z" data-old_color="#000000" class="active-path"/>
  <path data-original="#000000" d="m511.86 255.11c0.30859-5.5078-0.34766-11.09-2.1094-16.457-14.828-45.445-54.137-74.812-100.15-74.812h-10.238v-69.641l-0.14453-2.9297c0.30859-5.5078-0.34766-11.09-2.1094-16.457-12.352-37.855-28.68-74.812-79.668-74.812h-112.64c-50.984 0-67.316 36.957-79.676 74.812-1.1992 3.6562-1.8633 7.4141-2.0898 11.184l-0.15234 0.03125v77.812h-40.957c-50.988 0-67.316 36.957-79.68 74.812-1.1992 3.6562-1.8633 7.4141-2.0898 11.184l-0.15234 0.03125v177.71c0 35.258 28.68 63.938 63.938 63.938h148.61c16.836 0 32.125-6.5938 43.551-17.266 11.738 10.918 27.191 17.266 43.359 17.266h148.61c35.246 0 63.926-28.68 63.926-63.938v-169.54zm-102.25-70.789c36.977 0 68.66 23.816 80.68 60.695 1.1562 3.5312 1.4219 7.1445 0.98438 10.656l-0.0625 0.39844c-0.11328 0.80078-0.34766 1.5898-0.54297 2.3789-0.16406 0.67578-0.33594 1.3516-0.5625 2.0039-0.28906 0.85156-0.625 1.6914-1.0156 2.5117-0.44141 0.92969-0.96094 1.832-1.5234 2.7227-0.37891 0.60547-0.75781 1.1992-1.1875 1.7734-0.88281 1.1445-1.8438 2.2109-2.8906 3.1406-0.30469 0.28906-0.64453 0.53516-0.97266 0.80078-1.0352 0.83984-2.1289 1.5859-3.2773 2.2227-0.30469 0.17188-0.61328 0.34766-0.92969 0.5-1.2695 0.62891-2.6133 1.1172-3.9844 1.4883-0.27734 0.070313-0.53125 0.18359-0.80859 0.25391-1.6602 0.39062-3.3906 0.61328-5.1602 0.61328h-189.18c-0.89844 0-1.8008-0.17188-2.6914-0.28516v-18.156l-0.14453-2.9297c0.12109-2.2422 0.082031-4.4961-0.125-6.7383-0.039063-0.41797-0.12109-0.83594-0.17188-1.2578-0.34766-2.8477-0.90234-5.6836-1.8008-8.457-2.1953-6.7305-4.5391-13.426-7.1602-19.887 0.25391-0.69531 0.42188-1.3438 0.64453-2.0273 0.30859-0.93359 0.60547-1.8438 0.87109-2.7539 0.42969-1.4648 0.80078-2.8789 1.125-4.2734 0.18359-0.77734 0.37891-1.5547 0.53125-2.3125 0.32031-1.5156 0.57422-2.9492 0.80078-4.3555 0.082031-0.53125 0.19531-1.0742 0.27734-1.5859 0.27734-1.8242 0.50391-3.543 0.70703-5.1211 1.5469-12.02 1.5469-12.02 14.684-12.02zm-265-103.15c13.129-40.254 26.051-60.691 60.203-60.691h112.64c34.148 0 47.074 20.438 60.199 60.691 1.1562 3.5352 1.4258 7.1484 0.98438 10.672l-0.0625 0.39844c-0.11328 0.78906-0.33594 1.5664-0.53125 2.3555-0.17578 0.68359-0.33984 1.3711-0.57422 2.0352-0.28516 0.83984-0.625 1.6719-1.0039 2.4883-0.45312 0.94531-0.96484 1.8555-1.5352 2.7461-0.37891 0.60547-0.74609 1.1992-1.1797 1.7617-0.87891 1.1484-1.8438 2.2109-2.8867 3.1445-0.30859 0.28516-0.64453 0.53125-0.97266 0.79687-1.0352 0.83984-2.1328 1.5898-3.2773 2.2227-0.30859 0.17578-0.61719 0.34766-0.93359 0.50391-1.2695 0.625-2.6094 1.1172-3.9805 1.4844-0.27734 0.074219-0.53516 0.18359-0.80859 0.25391-1.6719 0.37891-3.4023 0.60547-5.1719 0.60547h-189.18c-1.7695 0-3.5-0.22656-5.1797-0.61328-0.28516-0.0625-0.53125-0.17578-0.80859-0.25781-1.3711-0.37891-2.7031-0.85938-3.9805-1.4844-0.32031-0.15234-0.625-0.32812-0.93359-0.5-1.1484-0.63672-2.2422-1.3828-3.2773-2.2227-0.32812-0.26953-0.66406-0.52344-0.97266-0.80078-1.043-0.94141-2-2.0078-2.8867-3.1445-0.42969-0.5625-0.80078-1.1562-1.1797-1.7617-0.57422-0.89062-1.0938-1.8008-1.5352-2.7422-0.37891-0.82031-0.71484-1.6484-1.0039-2.4922-0.23828-0.67578-0.39844-1.3516-0.57422-2.0352-0.19531-0.77734-0.42188-1.5664-0.53125-2.3555l-0.0625-0.39844c-0.42969-3.5117-0.16406-7.1367 0.99219-10.66zm-1.2383 45.262c0.53516 0.33594 1.125 0.59375 1.6797 0.91016 0.88281 0.51172 1.7695 1.0078 2.6836 1.457 0.72656 0.34766 1.4648 0.66406 2.2031 0.97266 1.0234 0.42969 2.0664 0.80859 3.1211 1.1562 0.70703 0.23437 1.4141 0.46094 2.1406 0.65625 1.2109 0.32812 2.4492 0.58203 3.6875 0.80078 0.625 0.10938 1.2305 0.24609 1.8633 0.33594 1.9062 0.24609 3.832 0.41016 5.7891 0.41016h189.17c1.957 0 3.8828-0.16406 5.7891-0.41016 0.63281-0.082031 1.2383-0.22656 1.8633-0.33594 1.2461-0.21875 2.4766-0.47266 3.6836-0.80078 0.73047-0.19531 1.4375-0.42188 2.1445-0.65625 1.0625-0.34766 2.0977-0.73828 3.1211-1.1562 0.74609-0.30859 1.4844-0.625 2.2031-0.97266 0.91016-0.44141 1.8008-0.94531 2.6797-1.457 0.55469-0.31641 1.1484-0.57031 1.6797-0.91016v37.406h-92.16c-3.5117 0-6.625 0.21484-9.4531 0.59375-0.94922 0.13281-1.6758 0.37891-2.5586 0.54297-1.7305 0.33594-3.4805 0.65625-4.9453 1.1367-0.88281 0.28516-1.5781 0.68359-2.3672 1.0352-1.1953 0.51172-2.4258 1.0039-3.4375 1.6289-0.71875 0.4375-1.2812 0.97266-1.9141 1.4648-0.85156 0.65625-1.7227 1.3086-2.4297 2.0547-0.54297 0.57422-0.98047 1.2188-1.4414 1.8359-0.59375 0.78516-1.1992 1.5664-1.6914 2.4258-0.39062 0.69531-0.71484 1.4336-1.043 2.1602-0.39844 0.89062-0.80859 1.7812-1.125 2.7344-0.26562 0.78906-0.50391 1.6172-0.71875 2.4375-0.26562 0.98047-0.53125 1.9648-0.73438 2.9883-0.1875 0.87891-0.35156 1.7812-0.49219 2.6914-0.082031 0.52344-0.20703 1.0078-0.28516 1.5391-1.4375-1.9062-2.9414-3.7305-4.5273-5.4805-0.042968-0.042968-0.074218-0.082031-0.11328-0.11328-1.5898-1.75-3.2656-3.4102-5.0273-4.9844-0.0625-0.0625-0.13281-0.11328-0.20703-0.17578-1.7695-1.5664-3.6328-3.043-5.5898-4.4219-0.11328-0.082032-0.22656-0.15625-0.34766-0.23438-1.9375-1.3438-3.9727-2.582-6.1055-3.7188-0.20313-0.11328-0.41797-0.22656-0.625-0.32812-2.0664-1.0664-4.2266-2.0391-6.4922-2.8984-0.35547-0.13281-0.70703-0.27734-1.0742-0.42188-2.1484-0.77734-4.4141-1.4531-6.7578-2.0391-0.54297-0.12891-1.0625-0.29688-1.6172-0.42969-2.2852-0.50781-4.6914-0.89844-7.1602-1.2148-0.67578-0.09375-1.3086-0.21875-1.9961-0.30078-3.1367-0.30469-6.4023-0.50781-9.8633-0.50781h-51.203zm-121.64 118.58c13.129-40.258 26.051-60.695 60.203-60.695h112.64c3.8945 0 7.4375 0.33594 10.805 0.87109 0.85938 0.13281 1.6797 0.32812 2.5078 0.5 2.543 0.52344 4.9453 1.1992 7.2109 2.0391 0.74609 0.27734 1.5273 0.53125 2.2539 0.85156 2.418 1.043 4.6602 2.3125 6.8008 3.7578 0.39844 0.27734 0.83594 0.46094 1.2266 0.74609 2.3477 1.6992 4.4961 3.707 6.5469 5.8984 0.94922 1.0352 1.8438 2.2539 2.7617 3.3984 1.0547 1.3203 2.1016 2.6641 3.0938 4.125 0.99219 1.4766 1.9453 3.0742 2.8867 4.7109 0.85156 1.4727 1.6797 2.9883 2.4883 4.5781 0.90234 1.7617 1.793 3.5703 2.6641 5.5078 0.90234 2.0078 1.7812 4.1172 2.6523 6.2969 0.625 1.5586 1.2617 3.043 1.8828 4.7227 1.4961 4.0117 2.9688 8.1797 4.4453 12.688 0.68359 2.0859 1.0352 4.2148 1.1367 6.3477 0.019531 0.37891-0.042969 0.75781-0.042969 1.1367 0 1.707-0.15234 3.4102-0.50781 5.0781-0.0625 0.28516-0.125 0.57422-0.19531 0.85156-0.019531 0.10156-0.0625 0.19141-0.082031 0.29688-0.49219 1.8203-1.168 3.6016-2.0898 5.293-0.10156 0.18359-0.20312 0.36719-0.30469 0.55078-1.0625 1.8438-2.3477 3.5859-3.9023 5.1445l-1.4141 1.4102c-0.10937 0.10156-0.23437 0.19531-0.34766 0.28906-1.0352 0.83984-2.1289 1.5859-3.2773 2.2227-0.30469 0.17188-0.61328 0.34766-0.92969 0.5-1.2695 0.625-2.6133 1.1172-3.9844 1.4844-0.27734 0.074218-0.53125 0.1875-0.80859 0.25781-1.6992 0.37891-3.4297 0.60156-5.2031 0.60156h-189.18c-1.7695 0-3.5-0.22266-5.1797-0.61328-0.28516-0.0625-0.53516-0.17578-0.80859-0.25391-1.3711-0.37891-2.7031-0.86328-3.9844-1.4844-0.31641-0.15625-0.625-0.32812-0.92969-0.50391-1.1484-0.63281-2.2422-1.3828-3.2773-2.2227-0.32812-0.26563-0.66797-0.52344-0.97266-0.80078-1.0469-0.94141-2-2.0039-2.8906-3.1406-0.42969-0.56641-0.79688-1.1562-1.1758-1.7617-0.57422-0.89062-1.0977-1.8047-1.5352-2.7461-0.37891-0.82031-0.71875-1.6484-1.0039-2.4883-0.23828-0.67578-0.40234-1.3516-0.57422-2.0391-0.19531-0.77734-0.42187-1.5664-0.53516-2.3555l-0.058594-0.39844c-0.42969-3.5078-0.16406-7.1328 0.99219-10.652zm190.82 226.03h-148.6c-23.961 0-43.457-19.488-43.457-43.449v-137.32c0.53125 0.33984 1.125 0.59766 1.6758 0.91406 0.88281 0.51172 1.7734 1.0039 2.6836 1.4531 0.72656 0.34766 1.4648 0.66406 2.2031 0.97266 1.0234 0.42969 2.0664 0.80859 3.125 1.1562 0.70703 0.23828 1.4141 0.46094 2.1406 0.65625 1.207 0.32812 2.4453 0.58594 3.6875 0.80078 0.625 0.11328 1.2266 0.24609 1.8633 0.33594 1.9141 0.23828 3.8359 0.39844 5.793 0.39844h189.18c1.957 0 3.8789-0.16016 5.7852-0.41016 0.63672-0.078125 1.2422-0.22266 1.8633-0.33594 1.25-0.21484 2.4805-0.47266 3.6875-0.80078 0.72656-0.19141 1.4336-0.41797 2.1406-0.65625 1.0664-0.34766 2.1016-0.73437 3.125-1.1562 0.74609-0.30469 1.4844-0.625 2.2031-0.97266 0.91016-0.44141 1.8008-0.94141 2.6797-1.4531 0.55469-0.31641 1.1484-0.57422 1.6797-0.91016v137.35c0 2.6406-0.32813 5.1914-0.77734 7.6992-0.19531 1.0469-0.48047 2.0703-0.74609 3.0938-0.34766 1.3516-0.75781 2.6641-1.2305 3.9609-0.49219 1.3125-1.0039 2.6133-1.6172 3.8828-0.36719 0.76953-0.80078 1.4961-1.2188 2.2305-0.83984 1.4961-1.6797 2.9922-2.7031 4.4141l-0.10156 0.14453c-7.9102 10.855-20.629 18.004-35.059 18.004zm278.98-43.461c0 23.961-19.496 43.461-43.461 43.461h-148.6c-11.734 0-22.629-4.6406-30.75-12.926 2.4062-4.4141 4.25-9.1719 5.5703-14.129 0.125-0.45312 0.23828-0.91406 0.34766-1.3633 0.47266-1.9219 0.83984-3.8906 1.125-5.875 0.082031-0.57422 0.19531-1.1367 0.26953-1.7109 0.27734-2.457 0.46094-4.9258 0.46094-7.4453v-130.72c0.88672 0.0625 1.793 0.09375 2.6914 0.09375h189.18c1.957 0 3.8789-0.16406 5.7852-0.41016 0.63672-0.082032 1.2383-0.22656 1.8633-0.33594 1.25-0.21875 2.4805-0.47266 3.6875-0.80078 0.72656-0.19531 1.4336-0.42188 2.1406-0.65625 1.0664-0.34766 2.1016-0.73828 3.125-1.1562 0.74609-0.30859 1.4844-0.625 2.2031-0.97266 0.91016-0.44141 1.8008-0.94531 2.6797-1.457 0.55469-0.31641 1.1484-0.57031 1.6797-0.91016v137.32h0.007812z" data-old_color="#000000" class="active-path"/>
 </g>
</svg>
